<svg xmlns="http://www.w3.org/2000/svg" viewBox="0 0 420 620" role="img" aria-labelledby="title desc">
  <title id="title">VisualTeX QQ 交流群 1045801770</title>
  <desc id="desc">扫描二维码或搜索群号加入 VisualTeX 交流群</desc>
  <defs>
    <linearGradient id="bg" x1="0" y1="0" x2="1" y2="1">
      <stop offset="0" stop-color="#1677ff"/>
      <stop offset="1" stop-color="#55a7ff"/>
    </linearGradient>
    <filter id="shadow" x="-20%" y="-20%" width="140%" height="140%">
      <feDropShadow dx="0" dy="12" stdDeviation="18" flood-color="#073b84" flood-opacity=".24"/>
    </filter>
  </defs>
  <rect width="420" height="620" rx="34" fill="url(#bg)"/>
  <circle cx="366" cy="62" r="76" fill="#fff" opacity=".09"/>
  <circle cx="42" cy="570" r="92" fill="#fff" opacity=".07"/>
  <g fill="#fff" text-anchor="middle" font-family="-apple-system,BlinkMacSystemFont,'Segoe UI','PingFang SC','Microsoft YaHei',sans-serif">
    <text x="210" y="58" font-size="27" font-weight="760">VisualTeX 交流群</text>
    <text x="210" y="91" font-size="15" opacity=".9">公式编辑 · Office 插件 · 使用反馈</text>
  </g>
  <rect x="48" y="118" width="324" height="350" rx="24" fill="#fff" filter="url(#shadow)"/>
  <rect x="70" y="140" width="280" height="280" rx="14" fill="#fff" stroke="#dbeafe" stroke-width="2"/>
  <path fill="#07111f" shape-rendering="crispEdges" transform="translate(94 164) scale(7.5)" d="M1 1h1v1h-1zM2 1h1v1h-1zM3 1h1v1h-1zM4 1h1v1h-1zM5 1h1v1h-1zM6 1h1v1h-1zM7 1h1v1h-1zM11 1h1v1h-1zM12 1h1v1h-1zM13 1h1v1h-1zM14 1h1v1h-1zM15 1h1v1h-1zM16 1h1v1h-1zM20 1h1v1h-1zM21 1h1v1h-1zM23 1h1v1h-1zM24 1h1v1h-1zM25 1h1v1h-1zM26 1h1v1h-1zM27 1h1v1h-1zM28 1h1v1h-1zM29 1h1v1h-1zM1 2h1v1h-1zM7 2h1v1h-1zM10 2h1v1h-1zM11 2h1v1h-1zM14 2h1v1h-1zM15 2h1v1h-1zM16 2h1v1h-1zM17 2h1v1h-1zM19 2h1v1h-1zM23 2h1v1h-1zM29 2h1v1h-1zM1 3h1v1h-1zM3 3h1v1h-1zM4 3h1v1h-1zM5 3h1v1h-1zM7 3h1v1h-1zM9 3h1v1h-1zM10 3h1v1h-1zM11 3h1v1h-1zM12 3h1v1h-1zM13 3h1v1h-1zM14 3h1v1h-1zM16 3h1v1h-1zM19 3h1v1h-1zM23 3h1v1h-1zM25 3h1v1h-1zM26 3h1v1h-1zM27 3h1v1h-1zM29 3h1v1h-1zM1 4h1v1h-1zM3 4h1v1h-1zM4 4h1v1h-1zM5 4h1v1h-1zM7 4h1v1h-1zM9 4h1v1h-1zM10 4h1v1h-1zM13 4h1v1h-1zM15 4h1v1h-1zM16 4h1v1h-1zM21 4h1v1h-1zM23 4h1v1h-1zM25 4h1v1h-1zM26 4h1v1h-1zM27 4h1v1h-1zM29 4h1v1h-1zM1 5h1v1h-1zM3 5h1v1h-1zM4 5h1v1h-1zM5 5h1v1h-1zM7 5h1v1h-1zM9 5h1v1h-1zM10 5h1v1h-1zM11 5h1v1h-1zM12 5h1v1h-1zM16 5h1v1h-1zM17 5h1v1h-1zM18 5h1v1h-1zM20 5h1v1h-1zM21 5h1v1h-1zM23 5h1v1h-1zM25 5h1v1h-1zM26 5h1v1h-1zM27 5h1v1h-1zM29 5h1v1h-1zM1 6h1v1h-1zM7 6h1v1h-1zM9 6h1v1h-1zM10 6h1v1h-1zM12 6h1v1h-1zM19 6h1v1h-1zM23 6h1v1h-1zM29 6h1v1h-1zM1 7h1v1h-1zM2 7h1v1h-1zM3 7h1v1h-1zM4 7h1v1h-1zM5 7h1v1h-1zM6 7h1v1h-1zM7 7h1v1h-1zM9 7h1v1h-1zM11 7h1v1h-1zM13 7h1v1h-1zM15 7h1v1h-1zM17 7h1v1h-1zM19 7h1v1h-1zM21 7h1v1h-1zM23 7h1v1h-1zM24 7h1v1h-1zM25 7h1v1h-1zM26 7h1v1h-1zM27 7h1v1h-1zM28 7h1v1h-1zM29 7h1v1h-1zM9 8h1v1h-1zM11 8h1v1h-1zM12 8h1v1h-1zM15 8h1v1h-1zM17 8h1v1h-1zM19 8h1v1h-1zM21 8h1v1h-1zM1 9h1v1h-1zM3 9h1v1h-1zM4 9h1v1h-1zM5 9h1v1h-1zM6 9h1v1h-1zM7 9h1v1h-1zM13 9h1v1h-1zM17 9h1v1h-1zM18 9h1v1h-1zM21 9h1v1h-1zM23 9h1v1h-1zM24 9h1v1h-1zM25 9h1v1h-1zM26 9h1v1h-1zM27 9h1v1h-1zM2 10h1v1h-1zM8 10h1v1h-1zM12 10h1v1h-1zM14 10h1v1h-1zM15 10h1v1h-1zM16 10h1v1h-1zM19 10h1v1h-1zM21 10h1v1h-1zM23 10h1v1h-1zM24 10h1v1h-1zM25 10h1v1h-1zM29 10h1v1h-1zM1 11h1v1h-1zM4 11h1v1h-1zM7 11h1v1h-1zM8 11h1v1h-1zM10 11h1v1h-1zM12 11h1v1h-1zM13 11h1v1h-1zM14 11h1v1h-1zM15 11h1v1h-1zM16 11h1v1h-1zM17 11h1v1h-1zM21 11h1v1h-1zM22 11h1v1h-1zM24 11h1v1h-1zM25 11h1v1h-1zM1 12h1v1h-1zM2 12h1v1h-1zM3 12h1v1h-1zM4 12h1v1h-1zM9 12h1v1h-1zM10 12h1v1h-1zM12 12h1v1h-1zM13 12h1v1h-1zM14 12h1v1h-1zM16 12h1v1h-1zM19 12h1v1h-1zM20 12h1v1h-1zM21 12h1v1h-1zM25 12h1v1h-1zM26 12h1v1h-1zM28 12h1v1h-1zM1 13h1v1h-1zM5 13h1v1h-1zM7 13h1v1h-1zM9 13h1v1h-1zM11 13h1v1h-1zM15 13h1v1h-1zM16 13h1v1h-1zM18 13h1v1h-1zM20 13h1v1h-1zM22 13h1v1h-1zM24 13h1v1h-1zM26 13h1v1h-1zM27 13h1v1h-1zM9 14h1v1h-1zM10 14h1v1h-1zM11 14h1v1h-1zM12 14h1v1h-1zM16 14h1v1h-1zM17 14h1v1h-1zM18 14h1v1h-1zM19 14h1v1h-1zM20 14h1v1h-1zM22 14h1v1h-1zM23 14h1v1h-1zM24 14h1v1h-1zM25 14h1v1h-1zM29 14h1v1h-1zM1 15h1v1h-1zM2 15h1v1h-1zM3 15h1v1h-1zM4 15h1v1h-1zM6 15h1v1h-1zM7 15h1v1h-1zM9 15h1v1h-1zM10 15h1v1h-1zM18 15h1v1h-1zM21 15h1v1h-1zM23 15h1v1h-1zM26 15h1v1h-1zM27 15h1v1h-1zM2 16h1v1h-1zM4 16h1v1h-1zM6 16h1v1h-1zM8 16h1v1h-1zM10 16h1v1h-1zM11 16h1v1h-1zM15 16h1v1h-1zM17 16h1v1h-1zM22 16h1v1h-1zM23 16h1v1h-1zM24 16h1v1h-1zM28 16h1v1h-1zM4 17h1v1h-1zM7 17h1v1h-1zM8 17h1v1h-1zM10 17h1v1h-1zM11 17h1v1h-1zM13 17h1v1h-1zM17 17h1v1h-1zM21 17h1v1h-1zM26 17h1v1h-1zM27 17h1v1h-1zM1 18h1v1h-1zM4 18h1v1h-1zM8 18h1v1h-1zM9 18h1v1h-1zM10 18h1v1h-1zM12 18h1v1h-1zM14 18h1v1h-1zM15 18h1v1h-1zM16 18h1v1h-1zM18 18h1v1h-1zM19 18h1v1h-1zM20 18h1v1h-1zM21 18h1v1h-1zM22 18h1v1h-1zM23 18h1v1h-1zM25 18h1v1h-1zM27 18h1v1h-1zM29 18h1v1h-1zM1 19h1v1h-1zM3 19h1v1h-1zM7 19h1v1h-1zM8 19h1v1h-1zM9 19h1v1h-1zM11 19h1v1h-1zM13 19h1v1h-1zM14 19h1v1h-1zM15 19h1v1h-1zM16 19h1v1h-1zM17 19h1v1h-1zM18 19h1v1h-1zM21 19h1v1h-1zM22 19h1v1h-1zM24 19h1v1h-1zM25 19h1v1h-1zM27 19h1v1h-1zM1 20h1v1h-1zM3 20h1v1h-1zM4 20h1v1h-1zM5 20h1v1h-1zM6 20h1v1h-1zM8 20h1v1h-1zM10 20h1v1h-1zM14 20h1v1h-1zM16 20h1v1h-1zM20 20h1v1h-1zM21 20h1v1h-1zM23 20h1v1h-1zM24 20h1v1h-1zM28 20h1v1h-1zM1 21h1v1h-1zM3 21h1v1h-1zM6 21h1v1h-1zM7 21h1v1h-1zM9 21h1v1h-1zM10 21h1v1h-1zM11 21h1v1h-1zM13 21h1v1h-1zM15 21h1v1h-1zM16 21h1v1h-1zM20 21h1v1h-1zM21 21h1v1h-1zM22 21h1v1h-1zM23 21h1v1h-1zM24 21h1v1h-1zM25 21h1v1h-1zM27 21h1v1h-1zM28 21h1v1h-1zM29 21h1v1h-1zM9 22h1v1h-1zM12 22h1v1h-1zM13 22h1v1h-1zM16 22h1v1h-1zM17 22h1v1h-1zM18 22h1v1h-1zM19 22h1v1h-1zM21 22h1v1h-1zM25 22h1v1h-1zM26 22h1v1h-1zM27 22h1v1h-1zM28 22h1v1h-1zM29 22h1v1h-1zM1 23h1v1h-1zM2 23h1v1h-1zM3 23h1v1h-1zM4 23h1v1h-1zM5 23h1v1h-1zM6 23h1v1h-1zM7 23h1v1h-1zM10 23h1v1h-1zM12 23h1v1h-1zM18 23h1v1h-1zM20 23h1v1h-1zM21 23h1v1h-1zM23 23h1v1h-1zM25 23h1v1h-1zM26 23h1v1h-1zM27 23h1v1h-1zM1 24h1v1h-1zM7 24h1v1h-1zM9 24h1v1h-1zM10 24h1v1h-1zM11 24h1v1h-1zM12 24h1v1h-1zM15 24h1v1h-1zM17 24h1v1h-1zM21 24h1v1h-1zM25 24h1v1h-1zM28 24h1v1h-1zM29 24h1v1h-1zM1 25h1v1h-1zM3 25h1v1h-1zM4 25h1v1h-1zM5 25h1v1h-1zM7 25h1v1h-1zM9 25h1v1h-1zM10 25h1v1h-1zM12 25h1v1h-1zM13 25h1v1h-1zM18 25h1v1h-1zM19 25h1v1h-1zM21 25h1v1h-1zM22 25h1v1h-1zM23 25h1v1h-1zM24 25h1v1h-1zM25 25h1v1h-1zM27 25h1v1h-1zM29 25h1v1h-1zM1 26h1v1h-1zM3 26h1v1h-1zM4 26h1v1h-1zM5 26h1v1h-1zM7 26h1v1h-1zM9 26h1v1h-1zM14 26h1v1h-1zM15 26h1v1h-1zM16 26h1v1h-1zM18 26h1v1h-1zM20 26h1v1h-1zM26 26h1v1h-1zM27 26h1v1h-1zM1 27h1v1h-1zM3 27h1v1h-1zM4 27h1v1h-1zM5 27h1v1h-1zM7 27h1v1h-1zM9 27h1v1h-1zM12 27h1v1h-1zM14 27h1v1h-1zM16 27h1v1h-1zM17 27h1v1h-1zM19 27h1v1h-1zM20 27h1v1h-1zM21 27h1v1h-1zM22 27h1v1h-1zM23 27h1v1h-1zM24 27h1v1h-1zM25 27h1v1h-1zM26 27h1v1h-1zM27 27h1v1h-1zM28 27h1v1h-1zM1 28h1v1h-1zM7 28h1v1h-1zM11 28h1v1h-1zM12 28h1v1h-1zM16 28h1v1h-1zM19 28h1v1h-1zM21 28h1v1h-1zM23 28h1v1h-1zM24 28h1v1h-1zM25 28h1v1h-1zM26 28h1v1h-1zM28 28h1v1h-1zM1 29h1v1h-1zM2 29h1v1h-1zM3 29h1v1h-1zM4 29h1v1h-1zM5 29h1v1h-1zM6 29h1v1h-1zM7 29h1v1h-1zM9 29h1v1h-1zM11 29h1v1h-1zM12 29h1v1h-1zM16 29h1v1h-1zM17 29h1v1h-1zM20 29h1v1h-1zM23 29h1v1h-1zM25 29h1v1h-1zM26 29h1v1h-1zM27 29h1v1h-1z"/>
  <text x="210" y="449" text-anchor="middle" fill="#23517e" font-family="-apple-system,BlinkMacSystemFont,'Segoe UI','PingFang SC','Microsoft YaHei',sans-serif" font-size="15">扫码加入 VisualTeX 交流群</text>
  <g text-anchor="middle" font-family="-apple-system,BlinkMacSystemFont,'Segoe UI','PingFang SC','Microsoft YaHei',sans-serif" fill="#fff">
    <text x="210" y="514" font-size="17" opacity=".92">QQ群号</text>
    <text x="210" y="558" font-size="35" font-weight="780" letter-spacing="2">1045801770</text>
    <text x="210" y="590" font-size="14" opacity=".88">欢迎交流使用体验与改进建议</text>
  </g>
</svg>
