<svg xmlns="http://www.w3.org/2000/svg" width="122.65619999999998" height="20.1664" role="img" focusable="false" viewBox="-71.42857142857143 -936.3285714285714 8761.157142857142 1440.4571428571428" xmlns:xlink="http://www.w3.org/1999/xlink"><rect x="-71.42857142857143" y="-936.3285714285714" width="8761.157142857142" height="1440.4571428571428" fill="#000000" fill-opacity="0.001"/><defs><path id="MJX-34-TEX-SO-2211" d="M61 748Q64 750 489 750H913L954 640Q965 609 976 579T993 533T999 516H979L959 517Q936 579 886 621T777 682Q724 700 655 705T436 710H319Q183 710 183 709Q186 706 348 484T511 259Q517 250 513 244L490 216Q466 188 420 134T330 27L149 -187Q149 -188 362 -188Q388 -188 436 -188T506 -189Q679 -189 778 -162T936 -43Q946 -27 959 6H999L913 -249L489 -250Q65 -250 62 -248Q56 -246 56 -239Q56 -234 118 -161Q186 -81 245 -11L428 206Q428 207 242 462L57 717L56 728Q56 744 61 748Z"></path><path id="MJX-34-TEX-N-221E" d="M55 217Q55 305 111 373T254 442Q342 442 419 381Q457 350 493 303L507 284L514 294Q618 442 747 442Q833 442 888 374T944 214Q944 128 889 59T743 -11Q657 -11 580 50Q542 81 506 128L492 147L485 137Q381 -11 252 -11Q166 -11 111 57T55 217ZM907 217Q907 285 869 341T761 397Q740 397 720 392T682 378T648 359T619 335T594 310T574 285T559 263T548 246L543 238L574 198Q605 158 622 138T664 94T714 61T765 51Q827 51 867 100T907 217ZM92 214Q92 145 131 89T239 33Q357 33 456 193L425 233Q364 312 334 337Q285 380 233 380Q171 380 132 331T92 214Z"></path><path id="MJX-34-TEX-I-1D45B" d="M21 287Q22 293 24 303T36 341T56 388T89 425T135 442Q171 442 195 424T225 390T231 369Q231 367 232 367L243 378Q304 442 382 442Q436 442 469 415T503 336T465 179T427 52Q427 26 444 26Q450 26 453 27Q482 32 505 65T540 145Q542 153 560 153Q580 153 580 145Q580 144 576 130Q568 101 554 73T508 17T439 -10Q392 -10 371 17T350 73Q350 92 386 193T423 345Q423 404 379 404H374Q288 404 229 303L222 291L189 157Q156 26 151 16Q138 -11 108 -11Q95 -11 87 -5T76 7T74 17Q74 30 112 180T152 343Q153 348 153 366Q153 405 129 405Q91 405 66 305Q60 285 60 284Q58 278 41 278H27Q21 284 21 287Z"></path><path id="MJX-34-TEX-N-3D" d="M56 347Q56 360 70 367H707Q722 359 722 347Q722 336 708 328L390 327H72Q56 332 56 347ZM56 153Q56 168 72 173H708Q722 163 722 153Q722 140 707 133H70Q56 140 56 153Z"></path><path id="MJX-34-TEX-N-31" d="M213 578L200 573Q186 568 160 563T102 556H83V602H102Q149 604 189 617T245 641T273 663Q275 666 285 666Q294 666 302 660V361L303 61Q310 54 315 52T339 48T401 46H427V0H416Q395 3 257 3Q121 3 100 0H88V46H114Q136 46 152 46T177 47T193 50T201 52T207 57T213 61V578Z"></path><path id="MJX-34-TEX-N-32" d="M109 429Q82 429 66 447T50 491Q50 562 103 614T235 666Q326 666 387 610T449 465Q449 422 429 383T381 315T301 241Q265 210 201 149L142 93L218 92Q375 92 385 97Q392 99 409 186V189H449V186Q448 183 436 95T421 3V0H50V19V31Q50 38 56 46T86 81Q115 113 136 137Q145 147 170 174T204 211T233 244T261 278T284 308T305 340T320 369T333 401T340 431T343 464Q343 527 309 573T212 619Q179 619 154 602T119 569T109 550Q109 549 114 549Q132 549 151 535T170 489Q170 464 154 447T109 429Z"></path><path id="MJX-34-TEX-I-1D465" d="M52 289Q59 331 106 386T222 442Q257 442 286 424T329 379Q371 442 430 442Q467 442 494 420T522 361Q522 332 508 314T481 292T458 288Q439 288 427 299T415 328Q415 374 465 391Q454 404 425 404Q412 404 406 402Q368 386 350 336Q290 115 290 78Q290 50 306 38T341 26Q378 26 414 59T463 140Q466 150 469 151T485 153H489Q504 153 504 145Q504 144 502 134Q486 77 440 33T333 -11Q263 -11 227 52Q186 -10 133 -10H127Q78 -10 57 16T35 71Q35 103 54 123T99 143Q142 143 142 101Q142 81 130 66T107 46T94 41L91 40Q91 39 97 36T113 29T132 26Q168 26 194 71Q203 87 217 139T245 247T261 313Q266 340 266 352Q266 380 251 392T217 404Q177 404 142 372T93 290Q91 281 88 280T72 278H58Q52 284 52 289Z"></path></defs><g stroke="#111111" fill="#111111" stroke-width="0" transform="scale(1,-1)"><g data-mml-node="math"><g data-mml-node="munderover"><g data-mml-node="mo"><use data-c="2211" xlink:href="#MJX-34-TEX-SO-2211"></use></g><g data-mml-node="TeXAtom" transform="translate(1089,477.1) scale(0.707)" data-mjx-texclass="ORD"><g data-mml-node="mi"><use data-c="221E" xlink:href="#MJX-34-TEX-N-221E"></use></g></g><g data-mml-node="TeXAtom" transform="translate(1089,-285.4) scale(0.707)" data-mjx-texclass="ORD"><g data-mml-node="mi"><use data-c="1D45B" xlink:href="#MJX-34-TEX-I-1D45B"></use></g><g data-mml-node="mo" transform="translate(600,0)"><use data-c="3D" xlink:href="#MJX-34-TEX-N-3D"></use></g><g data-mml-node="mn" transform="translate(1378,0)"><use data-c="31" xlink:href="#MJX-34-TEX-N-31"></use></g></g></g><g data-mml-node="mfrac" transform="translate(2633.6,0)"><g data-mml-node="mn" transform="translate(427.6,394) scale(0.707)"><use data-c="31" xlink:href="#MJX-34-TEX-N-31"></use></g><g data-mml-node="msup" transform="translate(220,-424.9) scale(0.707)"><g data-mml-node="mi"><use data-c="1D45B" xlink:href="#MJX-34-TEX-I-1D45B"></use></g><g data-mml-node="mn" transform="translate(633,289) scale(0.808)"><use data-c="32" xlink:href="#MJX-34-TEX-N-32"></use></g></g><rect width="968.7" height="60" x="120" y="220"></rect></g><g data-mml-node="TeXAtom" data-mjx-texclass="ORD" transform="translate(3842.3,0)"><g data-mml-node="mpadded"><g data-mml-node="mphantom"></g></g></g><g data-mml-node="mi" transform="translate(8046.3,0)"><use data-c="1D465" xlink:href="#MJX-34-TEX-I-1D465"></use></g></g></g></svg>